<?xml version="1.0" encoding="utf-8"?>
<!-- Generator: Adobe Illustrator 25.2.1, SVG Export Plug-In . SVG Version: 6.00 Build 0)  -->
<svg version="1.1" id="Слой_1" xmlns="http://www.w3.org/2000/svg" xmlns:xlink="http://www.w3.org/1999/xlink" x="0px" y="0px"
	 viewBox="0 0 260.2 97.2" style="enable-background:new 0 0 260.2 97.2;" xml:space="preserve">
<style type="text/css">
	.st0{fill:#FFFFFF;}
</style>
<g id="SPEED">
	<path class="st0" d="M4.8,90.2c4-2.3,7.9-4.6,11.9-6.9c1.4-0.8,2.9-1.3,4.6-1.3c3.8,0,7.6,0,11.4-0.1c4-0.2,6.8-2.4,8.4-5.9
		c0.1-0.1,0.1-0.2,0.1-0.5c-0.3,0-0.6,0-0.9,0c-5.4,0-10.8,0-16.2-0.1c-1.7,0-3.4-0.3-5.1-0.7c-3-0.7-3.6-3.2-3-5.6
		c0.5-1.8,0.5-1.8,2.4-1.8c9.7,0,19.3,0,29,0c1.3,0,2.7,0.3,3.9,0.8c2.5,0.9,3.4,3.1,2.5,5.6c-1,2.8-2.6,5.3-4.2,7.8
		c-1.6,2.4-3.5,4.5-5.9,6.2c-3.6,2.5-7.6,3.9-11.9,3.9c-9.4,0.1-18.7,0-28.1,0c-0.3,0-0.5,0-0.8,0c0-0.1,0-0.2-0.1-0.3
		C3.4,91.1,4.1,90.6,4.8,90.2z M23.2,57.3c3.5-4.1,8.1-6,13.3-6.5c0.8-0.1,1.7-0.1,2.6-0.1c10.5,0,21,0,31.5,0c0.3,0,0.7,0,1,0
		c0,0.1,0.1,0.1,0.1,0.2c-0.1,0.1-0.3,0.1-0.4,0.2c-4.9,3.1-9.8,6.3-15.1,8.9c-0.5,0.2-1,0.4-1.6,0.4c-5.6,0-11.2,0-16.8,0
		c-5.4,0-10.8,0-16.2,0.1c-0.2,0-0.3,0-0.5,0c0-0.1-0.1-0.1-0.1-0.2C21.7,59.2,22.4,58.2,23.2,57.3z"/>
	<path class="st0" d="M110.6,56.4c0,1.8-1.6,5.4-4.9,10.8c-1.8,3.7-4,6.8-6.4,9c-3.8,3.7-8.9,5.5-15.4,5.5l-16.3-0.1
		c-3.6,6.5-5.6,10-6.1,10.5H50l-0.3-0.3l11.8-20.5h11.9h9.7c5.2,0,8.3-0.9,9.4-2.6c1.9-2.7,2.9-4.5,2.9-5.4v-0.1
		c-0.3-1.3-1.4-2-3.4-2H79.2H67.5l6.2-10.8h0.1l26.9,0.1h2.4c3.1,0,5.4,1.2,7,3.6C110.3,54.8,110.5,55.5,110.6,56.4z"/>
	<path class="st0" d="M164.1,50.1v0.2L147,60.5h-23.9l-3.5,6.2h16.4V67c-9,5.3-13.7,8-14.2,8.1h-7c-1.6,2.4-2.7,4.4-3.4,6h35.4
		l0.1,0.1h0.1c-3.4,6.1-5.4,9.4-5.9,10h-47L94.2,91h-0.1l21-36.9l-2.5-4.2l12.6,0.1H164.1z"/>
	<path class="st0" d="M217,50.1v0.2l-17.1,10.2H176l-3.5,6.2H189V67c-9,5.3-13.7,8-14.2,8.1h-7c-1.6,2.4-2.7,4.4-3.4,6h35.4l0.1,0.1
		h0.1c-3.4,6.1-5.4,9.4-5.9,10h-47l-0.1-0.1H147l21-36.9l-2.5-4.2l12.6,0.1H217z"/>
	<path class="st0" d="M257.8,55.4V56c0,1.7-1.3,4.6-3.8,8.8c-6.5,11.7-10.3,18.2-11.4,19.7c-4.2,5-9.9,7.5-17,7.5h-29.1
		c0.3-0.8,4.1-7.6,11.5-20.6l2.2-3.9h12c-2,3.4-4.7,8.1-8,14h0.6l13.3-0.1c1.7,0,3.8-1.3,6.1-3.8c2.2-3.1,4.9-7.7,8.1-13.8l0.1-1.1
		v-0.1c-0.2-1.2-1.1-1.8-2.5-1.8h-12.9l0.1-0.1h-12.9l6-10.5h29.3C255,50.4,257.8,52.2,257.8,55.4z"/>
</g>
<g id="KYIV">
	<path class="st0" d="M64,22.3c-3.8,0.5-6,0.4-9.3,0.7c1.8,0.3,4.6,1,6.5,1.5c1.7,0.4,3.8,1.1,4.1,1.7c0.4,0.8-0.1,1.4-0.7,2.5
		c-0.5,0.8-0.7,1.1-0.8,1.4c-0.2,0.3-0.3,0.5-0.7,1.2c-0.7,1.1-1.8,2.8-2,3.1c-2.1,3.5-5.7,9.8-5.7,9.8H48l-4.5,0.1
		c4.9-7.9,7.9-12.7,8.4-13.8l0.2-1c0-0.4,0-0.6-0.1-0.8c-0.1-0.2-0.2-0.4-0.4-0.6c0,0,0,0,0,0c-0.1-0.1-0.1-0.1-0.2-0.2
		c-0.1-0.1-0.3-0.2-0.4-0.3c0,0-0.1-0.1-0.2-0.1c-0.1,0-0.1-0.1-0.2-0.1c-0.2-0.1-0.3-0.1-0.5-0.2c-0.1,0-0.2-0.1-0.4-0.1l-1.6-0.2
		l-11.9-0.5L25.1,44.2H12.8l1.5-2.2l11.2-18l3.7-6.1l13.5,0.1l2.9,0.1l8.6,0.1l0.3,0c3.1-0.3,5.3-0.7,6.4-2.7c5-8.4,7.3-12.3,7.8-13
		l4.9,0l6.6,0c0,0-10.2,17.4-11.3,18.3C67.6,21.8,65,22.1,64,22.3z M33.1,11.8l2.8-4.3l3.3-5.2h12.6c-0.1,0.3-1.8,2.4-5.2,8
		l-0.9,1.5H33.1z"/>
	<path class="st0" d="M94,2.7C86.8,15,83.1,21.4,83.1,21.8v0.4c0.3,0.8,0.8,1.1,1.7,1.1h3.3l6.8,0.1c3.4,0,6.1-1.4,8.2-4.2
		c6-10.5,9.2-16.1,9.7-16.7h1.7l10.1-0.1l0.1,0.1c-8.1,14.4-12.5,22.2-13.3,23.3c-4.5,5.2-9.9,7.7-16.2,7.7h-0.8L88.4,44l-0.1,0.1
		h-0.1L76,44.3l-0.1-0.1l5.9-10.4v-0.1h-6.6c-3.9-0.3-6.3-1.4-7.2-3.4c-0.3-0.4-0.4-1-0.4-1.6v-0.3c0-1.8,1.7-5.3,5.1-10.5l9.1-15.3
		h12L94,2.7z"/>
	<path class="st0" d="M139.4,2.2l0.3,0.3l-24,42h-11.9c0.8-1.9,8.8-16,23.8-42.3H139.4z"/>
	<path class="st0" d="M154.2,2.6l0.1,0.1h0.1l-18.4,31h13.8c3.9,0,7.5-3.4,10.9-10.3l12.4-20.9h11.3l0.3,0.3
		c-11.1,19.7-17.3,30.6-18.7,32.5c-4.8,5.7-11,8.6-18.6,8.6H118c0.1-0.5,6.6-11.5,19.4-33.2c2.8-4.9,4.5-7.7,5-8.2H154.2z"/>
</g>
</svg>
