<?xml version="1.0" encoding="utf-8"?>
<!-- Generator: Adobe Illustrator 19.0.1, SVG Export Plug-In . SVG Version: 6.00 Build 0)  -->
<svg version="1.1" id="Layer_1" xmlns="http://www.w3.org/2000/svg" xmlns:xlink="http://www.w3.org/1999/xlink" x="0px" y="0px"
	 viewBox="-696.8 49 857.8 545.6" style="enable-background:new -696.8 49 857.8 545.6;" xml:space="preserve">
<style type="text/css">
	.st0{fill:#FFFFFF;}
	.st1{fill:#A6A6A6;}
	.st2{fill:url(#SVGID_1_);}
	.st3{fill:#FFFFFF;stroke:#FFFFFF;stroke-width:0.16;stroke-miterlimit:10;}
	.st4{fill:url(#path64_1_);}
	.st5{fill:url(#path78_1_);}
	.st6{fill:url(#path88_1_);}
	.st7{fill:url(#path104_1_);}
</style>
<sodipodi:namedview  id="namedview4" inkscape:window-maximized="1" inkscape:cy="29.61582" inkscape:cx="93.965168" inkscape:zoom="7.6276974" showgrid="false" guidetolerance="10" gridtolerance="10" objecttolerance="10" borderopacity="1" pagecolor="#ffffff" bordercolor="#666666" inkscape:current-layer="g10" inkscape:window-y="-8" inkscape:window-x="-8" inkscape:window-height="705" inkscape:window-width="1366" inkscape:pageshadow="2" inkscape:pageopacity="0">
	</sodipodi:namedview>
<g>
	<g>
		<path class="st0" d="M141.4,282.3c0,13-10.5,23.6-23.6,23.6h-771.5c-13,0-23.6-10.5-23.6-23.6V94.5c0-13,10.6-23.6,23.6-23.6
			h771.5c13,0,23.6,10.6,23.6,23.6L141.4,282.3L141.4,282.3z"/>
		<path class="st1" d="M117.9,311.3h-771.5c-16,0-29.1-13-29.1-29V94.5c0-16,13-29.1,29.1-29.1h771.5c16,0,29.1,13,29.1,29.1v187.8
			C146.9,298.3,133.9,311.3,117.9,311.3L117.9,311.3z"/>
		<path d="M141.4,282.3c0,13-10.5,23.6-23.6,23.6h-771.5c-13,0-23.6-10.5-23.6-23.6V94.5c0-13,10.6-23.6,23.6-23.6h771.5
			c13,0,23.6,10.6,23.6,23.6L141.4,282.3L141.4,282.3z"/>
		<path class="st0" d="M-497.5,187.1c-0.2-19.8,16.2-29.5,17-29.9c-9.3-13.5-23.7-15.4-28.8-15.5c-12.1-1.3-23.8,7.2-30,7.2
			c-6.3,0-15.8-7.1-26-6.9c-13.2,0.2-25.5,7.8-32.2,19.7c-13.9,24.1-3.5,59.6,9.8,79.1c6.7,9.6,14.5,20.2,24.7,19.8
			c10-0.4,13.7-6.4,25.8-6.4c11.9,0,15.5,6.4,25.9,6.1c10.7-0.2,17.5-9.6,23.9-19.2c7.7-10.9,10.8-21.7,10.9-22.3
			C-476.7,218.7-497.3,210.8-497.5,187.1z"/>
		<path class="st0" d="M-517.2,128.8c5.4-6.7,9.1-15.9,8-25.1c-7.8,0.3-17.5,5.4-23.1,12c-5,5.8-9.4,15.3-8.2,24.2
			C-531.7,140.5-522.8,135.4-517.2,128.8z"/>
		
			<linearGradient id="SVGID_1_" gradientUnits="userSpaceOnUse" x1="-74.2268" y1="1070.9844" x2="-74.2268" y2="849.3356" gradientTransform="matrix(1 0 0 1 0 -759)">
			<stop  offset="0" style="stop-color:#1A1A1A;stop-opacity:0.1"/>
			<stop  offset="0.1235" style="stop-color:#212121;stop-opacity:0.1506"/>
			<stop  offset="0.3085" style="stop-color:#353535;stop-opacity:0.2265"/>
			<stop  offset="0.5321" style="stop-color:#575757;stop-opacity:0.3181"/>
			<stop  offset="0.7834" style="stop-color:#858585;stop-opacity:0.4212"/>
			<stop  offset="1" style="stop-color:#B3B3B3;stop-opacity:0.51"/>
		</linearGradient>
		<path class="st2" d="M117.9,65.4h-413.2l161.9,245.9h251.4c16,0,29.1-13,29.1-29V94.5C146.9,78.5,133.9,65.4,117.9,65.4z"/>
		<g>
			<path class="st0" d="M-352.7,259.1h-14l-7.6-24H-401l-7.3,24h-13.6l26.3-81.8h16.3L-352.7,259.1z M-376.7,225l-6.9-21.4
				c-0.7-2.2-2.1-7.3-4.1-15.4h-0.2c-0.8,3.5-2.1,8.6-3.9,15.4l-6.8,21.4H-376.7z"/>
			<path class="st0" d="M-285.1,228.9c0,10-2.7,18-8.2,23.8c-4.9,5.2-11,7.8-18.2,7.8c-7.8,0-13.4-2.8-16.8-8.4v31h-13.1v-63.5
				c0-6.3-0.2-12.8-0.5-19.4h11.5l0.7,9.4h0.2c4.4-7,11-10.6,19.9-10.6c7,0,12.8,2.7,17.4,8.3C-287.5,212.7-285.1,219.9-285.1,228.9
				z M-298.5,229.4c0-5.7-1.3-10.5-3.9-14.2c-2.8-3.9-6.6-5.8-11.4-5.8c-3.2,0-6.2,1.1-8.8,3.2c-2.6,2.2-4.4,5-5.2,8.4
				c-0.4,1.6-0.6,2.9-0.6,4v9.8c0,4.3,1.3,7.9,3.9,10.9c2.6,3,6.1,4.4,10.3,4.4c4.9,0,8.8-1.9,11.5-5.7
				C-299.9,240.6-298.5,235.6-298.5,229.4z"/>
			<path class="st0" d="M-217.3,228.9c0,10-2.7,18-8.2,23.8c-4.9,5.2-11,7.8-18.2,7.8c-7.8,0-13.4-2.8-16.8-8.4v31h-13.1v-63.5
				c0-6.3-0.2-12.8-0.5-19.4h11.5l0.7,9.4h0.2c4.4-7,11-10.6,19.9-10.6c7,0,12.8,2.7,17.4,8.3C-219.6,212.7-217.3,219.9-217.3,228.9
				z M-230.6,229.4c0-5.7-1.3-10.5-3.9-14.2c-2.8-3.9-6.6-5.8-11.4-5.8c-3.2,0-6.2,1.1-8.8,3.2c-2.6,2.2-4.3,5-5.2,8.4
				c-0.4,1.6-0.6,2.9-0.6,4v9.8c0,4.3,1.3,7.9,3.9,10.9c2.6,2.9,6.1,4.4,10.3,4.4c4.9,0,8.8-1.9,11.5-5.7
				C-232,240.6-230.6,235.6-230.6,229.4z"/>
			<path class="st0" d="M-141.4,236.2c0,7-2.4,12.6-7.3,17c-5.3,4.8-12.8,7.2-22.3,7.2c-8.8,0-15.9-1.7-21.2-5.1l3-10.9
				c5.7,3.4,12.1,5.1,18.9,5.1c4.9,0,8.8-1.1,11.5-3.3c2.7-2.2,4.1-5.2,4.1-8.9c0-3.3-1.1-6.1-3.4-8.4c-2.3-2.3-6-4.4-11.3-6.3
				c-14.3-5.3-21.5-13.2-21.5-23.4c0-6.7,2.5-12.2,7.6-16.5c5.1-4.3,11.8-6.4,20.1-6.4c7.4,0,13.7,1.3,18.6,3.9l-3.3,10.7
				c-4.6-2.5-9.9-3.8-15.7-3.8c-4.6,0-8.3,1.1-10.8,3.4c-2.2,2-3.3,4.5-3.3,7.4c0,3.2,1.3,5.9,3.8,8c2.2,1.9,6.1,4,11.9,6.3
				c7,2.8,12.2,6.1,15.5,9.9C-143,225.8-141.4,230.5-141.4,236.2z"/>
			<path class="st0" d="M-97.9,210h-14.5v28.6c0,7.3,2.5,10.9,7.6,10.9c2.3,0,4.3-0.2,5.8-0.6l0.4,10c-2.6,1-6,1.5-10.2,1.5
				c-5.2,0-9.2-1.6-12.1-4.7c-2.9-3.2-4.4-8.5-4.4-15.9V210h-8.6v-9.8h8.6v-10.8l12.9-3.9v14.7h14.5C-97.9,200.1-97.9,210-97.9,210z
				"/>
			<path class="st0" d="M-32.8,229.2c0,9.1-2.6,16.5-7.8,22.3c-5.4,6-12.6,9-21.6,9c-8.7,0-15.6-2.9-20.7-8.6
				c-5.1-5.7-7.7-13-7.7-21.7c0-9.1,2.7-16.6,8-22.5c5.3-5.8,12.5-8.7,21.4-8.7c8.7,0,15.6,2.9,20.9,8.6
				C-35.4,213.1-32.8,220.3-32.8,229.2z M-46.4,229.5c0-5.4-1.2-10-3.5-13.9c-2.7-4.7-6.7-7-11.8-7c-5.3,0-9.3,2.3-12,7
				c-2.3,3.9-3.5,8.6-3.5,14.2c0,5.4,1.2,10.1,3.5,13.9c2.8,4.7,6.8,7,11.9,7c5,0,8.9-2.4,11.8-7.1
				C-47.7,239.5-46.4,234.9-46.4,229.5z"/>
			<path class="st0" d="M9.8,211.7c-1.3-0.2-2.7-0.4-4.1-0.4c-4.6,0-8.2,1.7-10.7,5.2c-2.2,3.1-3.3,7-3.3,11.7v31h-13.1v-40.4
				c0-6.8-0.1-13-0.4-18.6h11.4l0.5,11.3h0.4c1.4-3.9,3.6-7,6.6-9.4c2.9-2.1,6.1-3.2,9.5-3.2c1.2,0,2.3,0.1,3.3,0.2L9.8,211.7
				L9.8,211.7z"/>
			<path class="st0" d="M68.4,226.8c0,2.3-0.2,4.3-0.5,5.9H28.6c0.1,5.8,2.1,10.3,5.7,13.4c3.3,2.7,7.6,4.1,12.9,4.1
				c5.8,0,11.1-0.9,15.9-2.8l2.1,9.1c-5.6,2.4-12.2,3.6-19.8,3.6c-9.1,0-16.3-2.7-21.6-8.1c-5.2-5.4-7.8-12.6-7.8-21.7
				c0-8.9,2.4-16.3,7.3-22.2c5.1-6.3,12-9.5,20.6-9.5c8.5,0,14.9,3.2,19.3,9.5C66.7,213.3,68.4,219.5,68.4,226.8z M55.9,223.4
				c0.1-3.9-0.8-7.2-2.5-10.1c-2.3-3.7-5.8-5.5-10.4-5.5c-4.3,0-7.8,1.8-10.4,5.3c-2.2,2.8-3.5,6.2-3.9,10.2L55.9,223.4L55.9,223.4z
				"/>
		</g>
		<g>
			<path class="st0" d="M-383,148h-6.9l-3.8-11.8h-13.1l-3.6,11.8h-6.7l12.9-40.2h8L-383,148z M-394.7,131.3l-3.4-10.5
				c-0.4-1.1-1-3.6-2-7.6h-0.1c-0.4,1.7-1,4.2-1.9,7.6l-3.3,10.5H-394.7z"/>
			<path class="st0" d="M-350.6,119l-11,29h-6.3l-10.6-29h6.9l5,15.3c0.8,2.6,1.5,5,2.1,7.3h0.2c0.5-2.1,1.2-4.5,2.1-7.3l4.9-15.3
				C-357.4,119-350.6,119-350.6,119z"/>
			<path class="st0" d="M-327.2,148l-0.5-3.3h-0.2c-2,2.7-4.8,4-8.5,4c-5.2,0-8.9-3.6-8.9-8.5c0-7.2,6.2-10.9,16.9-10.9v-0.5
				c0-3.8-2-5.7-6-5.7c-2.9,0-5.4,0.7-7.6,2.2l-1.3-4.2c2.7-1.7,6-2.5,10-2.5c7.6,0,11.4,4,11.4,12v10.7c0,2.9,0.1,5.2,0.4,6.9
				L-327.2,148L-327.2,148z M-328.1,133.6c-7.2,0-10.7,1.7-10.7,5.8c0,3,1.9,4.5,4.4,4.5c3.3,0,6.3-2.5,6.3-5.9
				C-328.1,138.1-328.1,133.6-328.1,133.6z"/>
			<path class="st0" d="M-307.5,114.2c-2.1,0-3.8-1.7-3.8-3.9s1.7-3.8,3.9-3.8c2.2,0,4,1.6,3.9,3.8
				C-303.4,112.7-305.1,114.2-307.5,114.2z M-304.2,148h-6.4v-29h6.4V148z"/>
			<path class="st0" d="M-286.3,148h-6.4v-42.3h6.4V148z"/>
			<path class="st0" d="M-258.9,148l-0.5-3.3h-0.2c-2,2.7-4.8,4-8.5,4c-5.2,0-8.9-3.6-8.9-8.5c0-7.2,6.2-10.9,16.9-10.9v-0.5
				c0-3.8-2-5.7-6-5.7c-2.9,0-5.4,0.7-7.6,2.2l-1.3-4.2c2.7-1.7,6-2.5,10-2.5c7.6,0,11.4,4,11.4,12v10.7c0,2.9,0.1,5.2,0.4,6.9
				H-258.9z M-259.8,133.6c-7.2,0-10.7,1.7-10.7,5.8c0,3,1.9,4.5,4.4,4.5c3.3,0,6.3-2.5,6.3-5.9V133.6z"/>
			<path class="st0" d="M-227.4,148.7c-4.1,0-7.2-1.7-9.1-5.1h-0.1l-0.4,4.5h-5.5c0.2-2.3,0.2-5,0.2-7.8v-34.5h6.5v17.5h0.1
				c1.9-3.2,5-4.8,9.2-4.8c7,0,11.9,6,11.9,14.7C-214.6,142.1-220,148.7-227.4,148.7z M-228.7,123.5c-3.7,0-7.1,3.2-7.1,7.7v5.1
				c0,4,3,7.3,7,7.3c4.8,0,7.7-3.9,7.7-10.2C-221.1,127.5-224.1,123.5-228.7,123.5z"/>
			<path class="st0" d="M-198.6,148h-6.4v-42.3h6.4V148z"/>
			<path class="st0" d="M-163.5,135.1h-19.3c0.1,5.5,3.8,8.6,9.1,8.6c2.9,0,5.5-0.5,7.8-1.4l1,4.5c-2.7,1.2-6,1.8-9.7,1.8
				c-9.1,0-14.4-5.7-14.4-14.6c0-8.9,5.5-15.6,13.7-15.6c7.4,0,12.1,5.5,12.1,13.8C-163.3,133.3-163.3,134.3-163.5,135.1z
				 M-169.4,130.5c0-4.5-2.3-7.6-6.4-7.6c-3.7,0-6.6,3.2-7,7.6H-169.4z"/>
			<path class="st0" d="M-124.4,148.7c-8.5,0-14-6.3-14-14.9c0-9,5.6-15.3,14.5-15.3c8.3,0,14,6,14,14.9
				C-110,142.4-115.8,148.7-124.4,148.7z M-124.2,123.1c-4.7,0-7.6,4.4-7.6,10.4c0,6,3,10.3,7.6,10.3s7.6-4.7,7.6-10.4
				C-116.7,127.6-119.7,123.1-124.2,123.1z"/>
			<path class="st0" d="M-75.4,148h-6.4v-16.7c0-5.1-2-7.7-5.8-7.7c-3.8,0-6.5,3.3-6.5,7.1V148h-6.4v-20.7c0-2.6-0.1-5.3-0.2-8.3
				h5.7l0.3,4.5h0.2c1.7-3.1,5.3-5.1,9.2-5.1c6.1,0,10.1,4.7,10.1,12.2L-75.4,148L-75.4,148z"/>
			<path class="st0" d="M-33.2,123.9h-7.1v14.1c0,3.6,1.2,5.4,3.8,5.4c1.1,0,2.1-0.1,2.9-0.3l0.2,4.9c-1.3,0.5-2.9,0.7-5,0.7
				c-5.1,0-8.1-2.8-8.1-10.1v-14.6h-4.2V119h4.2v-5.3l6.3-1.9v7.2h7.1V123.9z"/>
			<path class="st0" d="M0.9,148h-6.5v-16.5c0-5.2-2-7.8-5.8-7.8c-3.3,0-6.4,2.3-6.4,6.9V148h-6.5v-42.3h6.5v17.4h0.1
				c2-3.2,5-4.7,8.7-4.7c6.1,0,9.9,4.8,9.9,12.4V148z"/>
			<path class="st0" d="M33.9,135.1H14.5c0.1,5.5,3.8,8.6,9.1,8.6c2.9,0,5.5-0.5,7.8-1.4l1,4.5c-2.7,1.2-6,1.8-9.7,1.8
				c-9.1,0-14.4-5.7-14.4-14.6c0-8.9,5.5-15.6,13.7-15.6c7.4,0,12.1,5.5,12.1,13.8C34.1,133.3,34,134.3,33.9,135.1z M28,130.5
				c0-4.5-2.3-7.6-6.4-7.6c-3.7,0-6.6,3.2-7,7.6H28z"/>
		</g>
	</g>
	
		<g id="g10" transform="matrix(1.25,0,0,-1.25,-9.4247625,49.85025)" inkscape:groupmode="layer" inkscape:label="google-play-badge">
		<g id="g12" transform="matrix(1.0023923,0,0,0.99072975,-0.29664807,0)">
			<path id="path14" inkscape:connector-curvature="0" d="M100.6-426.6h-613.1c-13.5,0-24.5,11-24.5,24.5v147.1
				c0,13.5,11,24.5,24.5,24.5h613.1c13.5,0,24.5-11,24.5-24.5v-147.1C125.1-415.6,114-426.6,100.6-426.6z"/>
			<path id="path16" inkscape:connector-curvature="0" class="st1" d="M100.6-234.3c11.4,0,20.6-9.2,20.6-20.6v-147.1
				c0-11.4-9.2-20.6-20.6-20.6h-613.1c-11.4,0-20.6,9.2-20.6,20.6v147.1c0,11.4,9.2,20.6,20.6,20.6H100.6 M100.6-230.4h-613.1
				c-13.5,0-24.5-11-24.5-24.5v-147.1c0-13.5,11-24.5,24.5-24.5h613.1c13.5,0,24.5,11,24.5,24.5v147.1
				C125.1-241.4,114-230.4,100.6-230.4z"/>
			<g id="g18" transform="matrix(1,0,0,-1,0,48)">
				<path id="path20" inkscape:connector-curvature="0" class="st3" d="M-304.5,328.7c0,4.1-1.2,7.4-3.6,9.8
					c-2.8,2.9-6.4,4.4-10.8,4.4c-4.2,0-7.9-1.5-10.8-4.4c-3-3-4.5-6.6-4.5-11c0-4.4,1.5-8,4.5-10.9c3-2.9,6.6-4.4,10.8-4.4
					c2.1,0,4.1,0.4,6,1.2c1.9,0.8,3.5,1.9,4.6,3.3l-2.6,2.6c-2-2.3-4.6-3.5-8.1-3.5c-3.1,0-5.8,1.1-8,3.3c-2.3,2.2-3.4,5-3.4,8.5
					c0,3.5,1.1,6.3,3.4,8.5c2.3,2.2,5,3.3,8,3.3c3.3,0,6-1.1,8.2-3.3c1.4-1.4,2.3-3.4,2.5-6H-319v-3.5h14.2
					C-304.5,327.2-304.5,327.9-304.5,328.7z"/>
			</g>
			<g id="g22" transform="matrix(1,0,0,-1,0,48)">
				<path id="path24" inkscape:connector-curvature="0" class="st3" d="M-281.9,316.4h-13.4v9.3h12.1v3.5h-12.1v9.3h13.4v3.6h-17.2
					v-29.4h17.2C-281.9,312.8-281.9,316.4-281.9,316.4z"/>
			</g>
			<g id="g26" transform="matrix(1,0,0,-1,0,48)">
				<path id="path28" inkscape:connector-curvature="0" class="st3" d="M-265.9,342.2h-3.8v-25.8h-8.2v-3.6h20.2v3.6h-8.2V342.2z"/>
			</g>
			<g id="g30" transform="matrix(1,0,0,-1,0,48)">
				<path id="path32" inkscape:connector-curvature="0" class="st3" d="M-243.1,342.2v-29.4h3.8v29.4H-243.1z"/>
			</g>
			<g id="g34" transform="matrix(1,0,0,-1,0,48)">
				<path id="path36" inkscape:connector-curvature="0" class="st3" d="M-222.5,342.2h-3.8v-25.8h-8.2v-3.6h20.2v3.6h-8.2
					C-222.5,316.4-222.5,342.2-222.5,342.2z"/>
			</g>
			<g id="g38" transform="matrix(1,0,0,-1,0,48)">
				<path id="path40" inkscape:connector-curvature="0" class="st3" d="M-176,338.4c-2.9,3-6.5,4.5-10.8,4.5
					c-4.3,0-7.9-1.5-10.8-4.5c-2.9-3-4.3-6.6-4.3-10.9s1.4-8,4.3-10.9c2.9-3,6.5-4.5,10.8-4.5c4.3,0,7.9,1.5,10.8,4.5
					c2.9,3,4.4,6.6,4.4,10.9C-171.7,331.8-173.1,335.4-176,338.4z M-194.8,335.9c2.2,2.2,4.8,3.3,8,3.3c3.1,0,5.8-1.1,8-3.3
					c2.2-2.2,3.3-5,3.3-8.5s-1.1-6.3-3.3-8.5c-2.2-2.2-4.8-3.3-8-3.3c-3.2,0-5.8,1.1-8,3.3c-2.2,2.2-3.3,5-3.3,8.5
					S-197,333.7-194.8,335.9z"/>
			</g>
			<g id="g42" transform="matrix(1,0,0,-1,0,48)">
				<path id="path44" inkscape:connector-curvature="0" class="st3" d="M-166.4,342.2v-29.4h4.6l14.3,22.9h0.2l-0.2-5.7v-17.2h3.8
					v29.4h-3.9l-15-24h-0.2l0.2,5.7v18.3C-162.6,342.2-166.4,342.2-166.4,342.2z"/>
			</g>
			<path id="path46" inkscape:connector-curvature="0" class="st0" d="M-202.9-337.1c-11.5,0-20.9-8.8-20.9-20.9
				c0-12,9.4-20.9,20.9-20.9c11.5,0,21,8.9,21,20.9C-181.9-345.9-191.3-337.1-202.9-337.1z M-202.9-370.6c-6.3,0-11.8,5.2-11.8,12.6
				c0,7.5,5.4,12.6,11.8,12.6s11.8-5.1,11.8-12.6C-191.1-365.4-196.6-370.6-202.9-370.6z M-248.5-337.1c-11.5,0-20.9-8.8-20.9-20.9
				c0-12,9.4-20.9,20.9-20.9c11.5,0,20.9,8.9,20.9,20.9C-227.6-345.9-237-337.1-248.5-337.1z M-248.5-370.6
				c-6.3,0-11.8,5.2-11.8,12.6c0,7.5,5.5,12.6,11.8,12.6c6.3,0,11.8-5.1,11.8-12.6C-236.8-365.4-242.2-370.6-248.5-370.6z
				 M-302.9-343.5v-8.9h21.2c-0.6-5-2.3-8.6-4.8-11.1c-3.1-3.1-7.9-6.5-16.4-6.5c-13,0-23.2,10.5-23.2,23.5s10.2,23.5,23.2,23.5
				c7,0,12.2-2.8,16-6.3l6.2,6.2c-5.3,5.1-12.3,8.9-22.2,8.9c-17.9,0-32.9-14.5-32.9-32.4c0-17.9,15-32.4,32.9-32.4
				c9.7,0,16.9,3.2,22.6,9.1c5.8,5.8,7.7,14.1,7.7,20.7c0,2.1-0.2,4-0.5,5.5C-273.1-343.5-302.9-343.5-302.9-343.5z M-80.7-350.4
				c-1.7,4.7-7,13.3-17.9,13.3c-10.7,0-19.7-8.5-19.7-20.9c0-11.7,8.8-20.9,20.7-20.9c9.6,0,15.1,5.8,17.4,9.2l-7.1,4.7
				c-2.4-3.5-5.6-5.8-10.3-5.8c-4.6,0-8,2.1-10.1,6.3l27.9,11.5C-79.7-352.7-80.7-350.4-80.7-350.4z M-109.1-357.3
				c-0.2,8,6.2,12.2,10.9,12.2c3.6,0,6.7-1.8,7.8-4.4C-90.5-349.6-109.1-357.3-109.1-357.3z M-131.8-377.6h9.2v61.3h-9.2V-377.6z
				 M-146.8-341.7h-0.3c-2.1,2.4-6,4.6-11,4.6c-10.4,0-20-9.2-20-20.9c0-11.7,9.6-20.8,20-20.8c5,0,8.9,2.2,11,4.7h0.3v-3
				c0-8-4.3-12.3-11.1-12.3c-5.6,0-9.1,4-10.5,7.4l-8-3.3c2.3-5.5,8.4-12.3,18.5-12.3c10.8,0,19.8,6.3,19.8,21.7v37.5h-8.7V-341.7z
				 M-157.3-370.6c-6.3,0-11.6,5.3-11.6,12.6c0,7.4,5.3,12.7,11.6,12.7c6.2,0,11.1-5.4,11.1-12.7
				C-146.2-365.3-151.1-370.6-157.3-370.6z M-37.7-316.2h-21.9v-61.3h9.1v23.2h12.8c10.2,0,20.1,7.4,20.1,19
				C-17.6-323.6-27.6-316.2-37.7-316.2z M-37.5-345.8h-13v21h13c6.8,0,10.7-5.7,10.7-10.5C-26.8-340-30.7-345.8-37.5-345.8z
				 M19.1-337c-6.6,0-13.5-2.9-16.3-9.4l8.1-3.4c1.7,3.4,5,4.5,8.4,4.5c4.7,0,9.6-2.9,9.6-7.9v-0.6c-1.7,1-5.2,2.4-9.6,2.4
				c-8.7,0-17.7-4.8-17.7-13.8c0-8.2,7.2-13.5,15.2-13.5c6.2,0,9.6,2.8,11.7,6h0.3v-4.7h8.8v23.5C37.7-343.1,29.6-337,19.1-337z
				 M18-370.6c-3,0-7.2,1.5-7.2,5.2c0,4.7,5.2,6.6,9.7,6.6c4,0,5.9-0.9,8.4-2.1C28.1-366.6,23.3-370.6,18-370.6z M69.9-338.3
				l-10.5-26.6h-0.3l-10.9,26.6h-9.9l16.3-37.1l-9.3-20.7h9.6l25.2,57.8C80.1-338.3,69.9-338.3,69.9-338.3z M-12.6-377.6h9.2v61.3
				h-9.2V-377.6z"/>
			<g id="g48">
				
					<linearGradient id="path64_1_" gradientUnits="userSpaceOnUse" x1="-422.5689" y1="-58.391" x2="-525.4624" y2="-161.2844" gradientTransform="matrix(1.0024 0 0 -0.9907 -6.5687 -441.7346)">
					<stop  offset="0" style="stop-color:#00A0FF"/>
					<stop  offset="6.599999e-003" style="stop-color:#00A1FF"/>
					<stop  offset="0.2601" style="stop-color:#00BEFF"/>
					<stop  offset="0.5122" style="stop-color:#00D2FF"/>
					<stop  offset="0.7604" style="stop-color:#00DFFF"/>
					<stop  offset="1" style="stop-color:#00E3FF"/>
				</linearGradient>
				<path id="path64" inkscape:connector-curvature="0" class="st4" d="M-485.9-267.4c-1.4-1.5-2.3-3.9-2.3-6.9v-108.5
					c0-3,0.8-5.4,2.3-6.9l0.4-0.3l60.8,60.8v1.4l-60.8,60.8L-485.9-267.4z"/>
			</g>
			<g id="g66">
				
					<linearGradient id="path78_1_" gradientUnits="userSpaceOnUse" x1="-363.6769" y1="-114.2908" x2="-512.029" y2="-114.2908" gradientTransform="matrix(1.0024 0 0 -0.9907 -6.5687 -441.7346)">
					<stop  offset="0" style="stop-color:#FFE000"/>
					<stop  offset="0.4087" style="stop-color:#FFBD00"/>
					<stop  offset="0.7754" style="stop-color:#FFA500"/>
					<stop  offset="1" style="stop-color:#FF9C00"/>
				</linearGradient>
				<path id="path78" inkscape:connector-curvature="0" class="st5" d="M-404.5-349.5l-20.2,20.3v1.4l20.3,20.3l0.5-0.3l24-13.7
					c6.8-3.9,6.8-10.3,0-14.2l-24-13.6C-404-349.2-404.5-349.5-404.5-349.5z"/>
			</g>
			<g id="g80">
				
					<linearGradient id="path88_1_" gradientUnits="userSpaceOnUse" x1="-448.582" y1="-84.3468" x2="-588.114" y2="-223.8788" gradientTransform="matrix(1.0024 0 0 -0.9907 -6.5687 -441.7346)">
					<stop  offset="0" style="stop-color:#FF3A44"/>
					<stop  offset="1" style="stop-color:#C31162"/>
				</linearGradient>
				<path id="path88" inkscape:connector-curvature="0" class="st6" d="M-404-349.2l-20.7,20.7l-61.1-61.1c2.3-2.4,6-2.7,10.2-0.3
					L-404-349.2"/>
			</g>
			<g id="g90">
				
					<linearGradient id="path104_1_" gradientUnits="userSpaceOnUse" x1="-534.3462" y1="-57.4495" x2="-472.0389" y2="-119.7562" gradientTransform="matrix(1.0024 0 0 -0.9907 -6.5687 -441.7346)">
					<stop  offset="0" style="stop-color:#32A071"/>
					<stop  offset="6.850000e-002" style="stop-color:#2DA771"/>
					<stop  offset="0.4762" style="stop-color:#15CF74"/>
					<stop  offset="0.8009" style="stop-color:#06E775"/>
					<stop  offset="1" style="stop-color:#00F076"/>
				</linearGradient>
				<path id="path104" inkscape:connector-curvature="0" class="st7" d="M-404-307.8l-71.7,40.7c-4.2,2.4-7.9,2.1-10.2-0.3
					l61.1-61.1L-404-307.8z"/>
			</g>
		</g>
	</g>
</g>
</svg>
